<svg width="50" height="50" viewBox="0 0 50 50" fill="none" xmlns="http://www.w3.org/2000/svg">
  <circle cx="25" cy="25" r="23" stroke="black" stroke-width="2" fill="none"/>
  <path d="M15 20C15 16.6863 17.6863 14 21 14H29C32.3137 14 35 16.6863 35 20V30C35 33.3137 32.3137 36 29 36H21C17.6863 36 15 33.3137 15 30V20Z" stroke="black" stroke-width="2" fill="none"/>
  <path d="M20 25C20 22.7909 21.7909 21 24 21H26C28.2091 21 30 22.7909 30 25V25C30 27.2091 28.2091 29 26 29H24C21.7909 29 20 27.2091 20 25V25Z" stroke="black" stroke-width="2" fill="none"/>
</svg>
